<svg width="139" height="33" viewBox="0 0 139 33" fill="none" xmlns="http://www.w3.org/2000/svg">
<path d="M40.84 21.3071V12.6671H45.802V13.5491H41.722V16.5491H45.082V17.4251H41.722V21.3071H40.84ZM49.4171 21.4871C48.7731 21.4871 48.2231 21.3411 47.7671 21.0491C47.3111 20.7571 46.9611 20.3531 46.7171 19.8371C46.4731 19.3211 46.3511 18.7291 46.3511 18.0611C46.3511 17.3811 46.4751 16.7851 46.7231 16.2731C46.9711 15.7611 47.3231 15.3631 47.7791 15.0791C48.2391 14.7911 48.7851 14.6471 49.4171 14.6471C50.0651 14.6471 50.6171 14.7931 51.0731 15.0851C51.5331 15.3731 51.8831 15.7751 52.1231 16.2911C52.3671 16.8031 52.4891 17.3931 52.4891 18.0611C52.4891 18.7411 52.3671 19.3391 52.1231 19.8551C51.8791 20.3671 51.5271 20.7671 51.0671 21.0551C50.6071 21.3431 50.0571 21.4871 49.4171 21.4871ZM49.4171 20.6411C50.1371 20.6411 50.6731 20.4031 51.0251 19.9271C51.3771 19.4471 51.5531 18.8251 51.5531 18.0611C51.5531 17.2771 51.3751 16.6531 51.0191 16.1891C50.6671 15.7251 50.1331 15.4931 49.4171 15.4931C48.9331 15.4931 48.5331 15.6031 48.2171 15.8231C47.9051 16.0391 47.6711 16.3411 47.5151 16.7291C47.3631 17.1131 47.2871 17.5571 47.2871 18.0611C47.2871 18.8411 47.4671 19.4671 47.8271 19.9391C48.1871 20.4071 48.7171 20.6411 49.4171 20.6411ZM56.5187 21.4871C55.8747 21.4871 55.3247 21.3411 54.8687 21.0491C54.4127 20.7571 54.0627 20.3531 53.8187 19.8371C53.5747 19.3211 53.4527 18.7291 53.4527 18.0611C53.4527 17.3811 53.5767 16.7851 53.8247 16.2731C54.0727 15.7611 54.4247 15.3631 54.8807 15.0791C55.3407 14.7911 55.8867 14.6471 56.5187 14.6471C57.1667 14.6471 57.7187 14.7931 58.1747 15.0851C58.6347 15.3731 58.9847 15.7751 59.2247 16.2911C59.4687 16.8031 59.5907 17.3931 59.5907 18.0611C59.5907 18.7411 59.4687 19.3391 59.2247 19.8551C58.9807 20.3671 58.6287 20.7671 58.1687 21.0551C57.7087 21.3431 57.1587 21.4871 56.5187 21.4871ZM56.5187 20.6411C57.2387 20.6411 57.7747 20.4031 58.1267 19.9271C58.4787 19.4471 58.6547 18.8251 58.6547 18.0611C58.6547 17.2771 58.4767 16.6531 58.1207 16.1891C57.7687 15.7251 57.2347 15.4931 56.5187 15.4931C56.0347 15.4931 55.6347 15.6031 55.3187 15.8231C55.0067 16.0391 54.7727 16.3411 54.6167 16.7291C54.4647 17.1131 54.3887 17.5571 54.3887 18.0611C54.3887 18.8411 54.5687 19.4671 54.9287 19.9391C55.2887 20.4071 55.8187 20.6411 56.5187 20.6411ZM63.4282 21.4871C62.8242 21.4871 62.3082 21.3371 61.8802 21.0371C61.4522 20.7331 61.1242 20.3231 60.8962 19.8071C60.6682 19.2911 60.5542 18.7091 60.5542 18.0611C60.5542 17.4171 60.6662 16.8371 60.8902 16.3211C61.1182 15.8051 61.4442 15.3971 61.8682 15.0971C62.2922 14.7971 62.8002 14.6471 63.3922 14.6471C64.0002 14.6471 64.5122 14.7951 64.9282 15.0911C65.3442 15.3871 65.6582 15.7931 65.8702 16.3091C66.0862 16.8211 66.1942 17.4051 66.1942 18.0611C66.1942 18.7051 66.0882 19.2871 65.8762 19.8071C65.6642 20.3231 65.3522 20.7331 64.9402 21.0371C64.5282 21.3371 64.0242 21.4871 63.4282 21.4871ZM63.5182 20.6651C63.9782 20.6651 64.3582 20.5531 64.6582 20.3291C64.9582 20.1051 65.1822 19.7971 65.3302 19.4051C65.4782 19.0091 65.5522 18.5611 65.5522 18.0611C65.5522 17.5531 65.4782 17.1051 65.3302 16.7171C65.1822 16.3251 64.9582 16.0191 64.6582 15.7991C64.3622 15.5791 63.9882 15.4691 63.5362 15.4691C63.0722 15.4691 62.6882 15.5831 62.3842 15.8111C62.0802 16.0391 61.8542 16.3491 61.7062 16.7411C61.5622 17.1331 61.4902 17.5731 61.4902 18.0611C61.4902 18.5531 61.5642 18.9971 61.7122 19.3931C61.8642 19.7851 62.0902 20.0951 62.3902 20.3231C62.6902 20.5511 63.0662 20.6651 63.5182 20.6651ZM65.5522 21.3071V16.4291H65.4562V12.6671H66.3442V21.3071H65.5522ZM73.2078 21.4871C72.7278 21.4871 72.2818 21.4191 71.8698 21.2831C71.4618 21.1431 71.1198 20.9251 70.8438 20.6291C70.6278 20.3971 70.4678 20.1391 70.3638 19.8551C70.2598 19.5671 70.2018 19.2631 70.1898 18.9431C70.1858 18.6391 70.2298 18.3371 70.3218 18.0371C70.4138 17.7371 70.5578 17.4711 70.7538 17.2391C70.8698 17.0951 70.9998 16.9751 71.1438 16.8791C71.2918 16.7831 71.4438 16.7011 71.5998 16.6331C71.2998 16.3211 71.0698 16.0331 70.9098 15.7691C70.7538 15.5011 70.6758 15.1731 70.6758 14.7851C70.6758 14.3411 70.7878 13.9351 71.0118 13.5671C71.2398 13.1991 71.5538 12.9251 71.9538 12.7451C72.1578 12.6531 72.3658 12.5891 72.5778 12.5531C72.7938 12.5131 73.0078 12.4931 73.2198 12.4931C73.5438 12.4931 73.8618 12.5391 74.1738 12.6311C74.4858 12.7191 74.7518 12.8591 74.9718 13.0511C75.1198 13.1671 75.2498 13.3051 75.3618 13.4651C75.4738 13.6211 75.5618 13.7851 75.6258 13.9571L74.7738 14.2091C74.6898 13.9931 74.5498 13.8111 74.3538 13.6631C74.2018 13.5431 74.0258 13.4591 73.8258 13.4111C73.6298 13.3631 73.4318 13.3391 73.2318 13.3391C72.8918 13.3391 72.5838 13.4051 72.3078 13.5371C72.0678 13.6571 71.8878 13.8231 71.7678 14.0351C71.6478 14.2471 71.5878 14.4951 71.5878 14.7791C71.5878 15.0231 71.6278 15.2251 71.7078 15.3851C71.7878 15.5411 71.9038 15.7111 72.0558 15.8951C72.1438 15.9911 72.2418 16.0891 72.3498 16.1891C72.4578 16.2851 72.5678 16.3851 72.6798 16.4891L75.4158 19.0271C75.4318 18.9151 75.4418 18.8071 75.4458 18.7031C75.4498 18.5951 75.4518 18.4891 75.4518 18.3851L75.4458 17.1191H76.2798V18.4451C76.2798 18.7611 76.2678 19.0191 76.2438 19.2191C76.2198 19.4191 76.1878 19.5851 76.1478 19.7171L77.2638 20.7431L76.6818 21.3611L75.7278 20.4611C75.5958 20.6331 75.4278 20.7871 75.2238 20.9231C75.0238 21.0591 74.8238 21.1651 74.6238 21.2411C74.4078 21.3371 74.1798 21.4011 73.9398 21.4331C73.6998 21.4691 73.4558 21.4871 73.2078 21.4871ZM73.2198 20.6351C73.4478 20.6351 73.6538 20.6211 73.8378 20.5931C74.0218 20.5651 74.1978 20.5071 74.3658 20.4191C74.5778 20.3071 74.7358 20.2031 74.8398 20.1071C74.9438 20.0071 75.0278 19.9191 75.0918 19.8431L72.2838 17.2751C72.1158 17.3271 71.9578 17.3991 71.8098 17.4911C71.6658 17.5791 71.5418 17.6851 71.4378 17.8091C71.3218 17.9531 71.2358 18.1191 71.1798 18.3071C71.1238 18.4951 71.0958 18.6931 71.0958 18.9011C71.1038 19.1211 71.1398 19.3251 71.2038 19.5131C71.2718 19.6971 71.3718 19.8611 71.5038 20.0051C71.6918 20.2251 71.9438 20.3851 72.2598 20.4851C72.5758 20.5851 72.8958 20.6351 73.2198 20.6351ZM80.6486 21.3071V12.6671H83.9846C84.4686 12.6671 84.8906 12.7671 85.2506 12.9671C85.6106 13.1671 85.8906 13.4371 86.0906 13.7771C86.2906 14.1131 86.3906 14.4851 86.3906 14.8931C86.3906 15.3571 86.2666 15.7711 86.0186 16.1351C85.7706 16.4951 85.4386 16.7451 85.0226 16.8851L85.0106 16.5911C85.5706 16.7511 86.0106 17.0311 86.3306 17.4311C86.6506 17.8311 86.8106 18.3151 86.8106 18.8831C86.8106 19.3831 86.7046 19.8151 86.4926 20.1791C86.2806 20.5391 85.9826 20.8171 85.5986 21.0131C85.2146 21.2091 84.7686 21.3071 84.2606 21.3071H80.6486ZM81.5366 20.4611H84.0446C84.3966 20.4611 84.7126 20.3991 84.9926 20.2751C85.2726 20.1471 85.4926 19.9671 85.6526 19.7351C85.8166 19.5031 85.8986 19.2231 85.8986 18.8951C85.8986 18.5751 85.8246 18.2871 85.6766 18.0311C85.5286 17.7751 85.3266 17.5711 85.0706 17.4191C84.8186 17.2631 84.5306 17.1851 84.2066 17.1851H81.5366V20.4611ZM81.5366 16.3511H83.9786C84.2546 16.3511 84.5066 16.2891 84.7346 16.1651C84.9626 16.0371 85.1426 15.8631 85.2746 15.6431C85.4106 15.4231 85.4786 15.1691 85.4786 14.8811C85.4786 14.4731 85.3366 14.1411 85.0526 13.8851C84.7726 13.6291 84.4146 13.5011 83.9786 13.5011H81.5366V16.3511ZM90.75 21.4871C90.118 21.4871 89.57 21.3471 89.106 21.0671C88.646 20.7871 88.288 20.3931 88.032 19.8851C87.776 19.3771 87.648 18.7811 87.648 18.0971C87.648 17.3891 87.774 16.7771 88.026 16.2611C88.278 15.7451 88.632 15.3471 89.088 15.0671C89.548 14.7871 90.09 14.6471 90.714 14.6471C91.354 14.6471 91.9 14.7951 92.352 15.0911C92.804 15.3831 93.146 15.8031 93.378 16.3511C93.61 16.8991 93.716 17.5531 93.696 18.3131H92.796V18.0011C92.78 17.1611 92.598 16.5271 92.25 16.0991C91.906 15.6711 91.402 15.4571 90.738 15.4571C90.042 15.4571 89.508 15.6831 89.136 16.1351C88.768 16.5871 88.584 17.2311 88.584 18.0671C88.584 18.8831 88.768 19.5171 89.136 19.9691C89.508 20.4171 90.034 20.6411 90.714 20.6411C91.178 20.6411 91.582 20.5351 91.926 20.3231C92.274 20.1071 92.548 19.7971 92.748 19.3931L93.57 19.7111C93.314 20.2751 92.936 20.7131 92.436 21.0251C91.94 21.3331 91.378 21.4871 90.75 21.4871ZM88.272 18.3131V17.5751H93.222V18.3131H88.272ZM96.5451 21.3071L94.1931 14.8271H95.0871L97.0011 20.1551L98.9031 14.8271H99.8091L97.4571 21.3071H96.5451ZM103.395 21.4871C102.763 21.4871 102.215 21.3471 101.751 21.0671C101.291 20.7871 100.933 20.3931 100.677 19.8851C100.421 19.3771 100.293 18.7811 100.293 18.0971C100.293 17.3891 100.419 16.7771 100.671 16.2611C100.923 15.7451 101.277 15.3471 101.733 15.0671C102.193 14.7871 102.735 14.6471 103.359 14.6471C103.999 14.6471 104.545 14.7951 104.997 15.0911C105.449 15.3831 105.791 15.8031 106.023 16.3511C106.255 16.8991 106.361 17.5531 106.341 18.3131H105.441V18.0011C105.425 17.1611 105.243 16.5271 104.895 16.0991C104.551 15.6711 104.047 15.4571 103.383 15.4571C102.687 15.4571 102.153 15.6831 101.781 16.1351C101.413 16.5871 101.229 17.2311 101.229 18.0671C101.229 18.8831 101.413 19.5171 101.781 19.9691C102.153 20.4171 102.679 20.6411 103.359 20.6411C103.823 20.6411 104.227 20.5351 104.571 20.3231C104.919 20.1071 105.193 19.7971 105.393 19.3931L106.215 19.7111C105.959 20.2751 105.581 20.7131 105.081 21.0251C104.585 21.3331 104.023 21.4871 103.395 21.4871ZM100.917 18.3131V17.5751H105.867V18.3131H100.917ZM107.672 21.3071V14.8271H108.464V16.3871L108.308 16.1831C108.38 15.9911 108.474 15.8151 108.59 15.6551C108.706 15.4911 108.832 15.3571 108.968 15.2531C109.136 15.1051 109.332 14.9931 109.556 14.9171C109.78 14.8371 110.006 14.7911 110.234 14.7791C110.462 14.7631 110.67 14.7791 110.858 14.8271V15.6551C110.622 15.5951 110.364 15.5811 110.084 15.6131C109.804 15.6451 109.546 15.7571 109.31 15.9491C109.094 16.1171 108.932 16.3191 108.824 16.5551C108.716 16.7871 108.644 17.0351 108.608 17.2991C108.572 17.5591 108.554 17.8171 108.554 18.0731V21.3071H107.672ZM113.604 21.4871C113.116 21.4871 112.706 21.3991 112.374 21.2231C112.046 21.0471 111.8 20.8131 111.636 20.5211C111.472 20.2291 111.39 19.9111 111.39 19.5671C111.39 19.2151 111.46 18.9151 111.6 18.6671C111.744 18.4151 111.938 18.2091 112.182 18.0491C112.43 17.8891 112.716 17.7671 113.04 17.6831C113.368 17.6031 113.73 17.5331 114.126 17.4731C114.526 17.4091 114.916 17.3551 115.296 17.3111C115.68 17.2631 116.016 17.2171 116.304 17.1731L115.992 17.3651C116.004 16.7251 115.88 16.2511 115.62 15.9431C115.36 15.6351 114.908 15.4811 114.264 15.4811C113.82 15.4811 113.444 15.5811 113.136 15.7811C112.832 15.9811 112.618 16.2971 112.494 16.7291L111.636 16.4771C111.784 15.8971 112.082 15.4471 112.53 15.1271C112.978 14.8071 113.56 14.6471 114.276 14.6471C114.868 14.6471 115.37 14.7591 115.782 14.9831C116.198 15.2031 116.492 15.5231 116.664 15.9431C116.744 16.1311 116.796 16.3411 116.82 16.5731C116.844 16.8051 116.856 17.0411 116.856 17.2811V21.3071H116.07V19.6811L116.298 19.7771C116.078 20.3331 115.736 20.7571 115.272 21.0491C114.808 21.3411 114.252 21.4871 113.604 21.4871ZM113.706 20.7251C114.118 20.7251 114.478 20.6511 114.786 20.5031C115.094 20.3551 115.342 20.1531 115.53 19.8971C115.718 19.6371 115.84 19.3451 115.896 19.0211C115.944 18.8131 115.97 18.5851 115.974 18.3371C115.978 18.0851 115.98 17.8971 115.98 17.7731L116.316 17.9471C116.016 17.9871 115.69 18.0271 115.338 18.0671C114.99 18.1071 114.646 18.1531 114.306 18.2051C113.97 18.2571 113.666 18.3191 113.394 18.3911C113.21 18.4431 113.032 18.5171 112.86 18.6131C112.688 18.7051 112.546 18.8291 112.434 18.9851C112.326 19.1411 112.272 19.3351 112.272 19.5671C112.272 19.7551 112.318 19.9371 112.41 20.1131C112.506 20.2891 112.658 20.4351 112.866 20.5511C113.078 20.6671 113.358 20.7251 113.706 20.7251ZM120.992 24.3671C120.66 24.3671 120.332 24.3171 120.008 24.2171C119.688 24.1211 119.392 23.9671 119.12 23.7551C118.848 23.5471 118.62 23.2751 118.436 22.9391L119.234 22.4951C119.414 22.8551 119.666 23.1131 119.99 23.2691C120.318 23.4291 120.652 23.5091 120.992 23.5091C121.46 23.5091 121.838 23.4211 122.126 23.2451C122.418 23.0731 122.63 22.8171 122.762 22.4771C122.894 22.1371 122.958 21.7131 122.954 21.2051V19.4771H123.056V14.8271H123.842V21.2171C123.842 21.4011 123.836 21.5771 123.824 21.7451C123.816 21.9171 123.798 22.0851 123.77 22.2491C123.694 22.7331 123.536 23.1311 123.296 23.4431C123.06 23.7551 122.748 23.9871 122.36 24.1391C121.976 24.2911 121.52 24.3671 120.992 24.3671ZM120.932 21.4871C120.328 21.4871 119.812 21.3371 119.384 21.0371C118.956 20.7331 118.628 20.3231 118.4 19.8071C118.172 19.2911 118.058 18.7091 118.058 18.0611C118.058 17.4171 118.17 16.8371 118.394 16.3211C118.622 15.8051 118.948 15.3971 119.372 15.0971C119.796 14.7971 120.304 14.6471 120.896 14.6471C121.504 14.6471 122.016 14.7951 122.432 15.0911C122.848 15.3871 123.162 15.7931 123.374 16.3091C123.59 16.8211 123.698 17.4051 123.698 18.0611C123.698 18.7051 123.592 19.2871 123.38 19.8071C123.168 20.3231 122.856 20.7331 122.444 21.0371C122.032 21.3371 121.528 21.4871 120.932 21.4871ZM121.022 20.6651C121.482 20.6651 121.862 20.5531 122.162 20.3291C122.462 20.1051 122.686 19.7971 122.834 19.4051C122.982 19.0091 123.056 18.5611 123.056 18.0611C123.056 17.5531 122.982 17.1051 122.834 16.7171C122.686 16.3251 122.462 16.0191 122.162 15.7991C121.866 15.5791 121.492 15.4691 121.04 15.4691C120.576 15.4691 120.192 15.5831 119.888 15.8111C119.584 16.0391 119.358 16.3491 119.21 16.7411C119.066 17.1331 118.994 17.5731 118.994 18.0611C118.994 18.5531 119.068 18.9971 119.216 19.3931C119.368 19.7851 119.594 20.0951 119.894 20.3231C120.194 20.5511 120.57 20.6651 121.022 20.6651ZM128.262 21.4871C127.63 21.4871 127.082 21.3471 126.618 21.0671C126.158 20.7871 125.8 20.3931 125.544 19.8851C125.288 19.3771 125.16 18.7811 125.16 18.0971C125.16 17.3891 125.286 16.7771 125.538 16.2611C125.79 15.7451 126.144 15.3471 126.6 15.0671C127.06 14.7871 127.602 14.6471 128.226 14.6471C128.866 14.6471 129.412 14.7951 129.864 15.0911C130.316 15.3831 130.658 15.8031 130.89 16.3511C131.122 16.8991 131.228 17.5531 131.208 18.3131H130.308V18.0011C130.292 17.1611 130.11 16.5271 129.762 16.0991C129.418 15.6711 128.914 15.4571 128.25 15.4571C127.554 15.4571 127.02 15.6831 126.648 16.1351C126.28 16.5871 126.096 17.2311 126.096 18.0671C126.096 18.8831 126.28 19.5171 126.648 19.9691C127.02 20.4171 127.546 20.6411 128.226 20.6411C128.69 20.6411 129.094 20.5351 129.438 20.3231C129.786 20.1071 130.06 19.7971 130.26 19.3931L131.082 19.7111C130.826 20.2751 130.448 20.7131 129.948 21.0251C129.452 21.3331 128.89 21.4871 128.262 21.4871ZM125.784 18.3131V17.5751H130.734V18.3131H125.784ZM134.957 21.4811C134.197 21.4811 133.571 21.3171 133.079 20.9891C132.591 20.6611 132.291 20.2051 132.179 19.6211L133.079 19.4711C133.175 19.8391 133.393 20.1331 133.733 20.3531C134.077 20.5691 134.501 20.6771 135.005 20.6771C135.497 20.6771 135.885 20.5751 136.169 20.3711C136.453 20.1631 136.595 19.8811 136.595 19.5251C136.595 19.3251 136.549 19.1631 136.457 19.0391C136.369 18.9111 136.187 18.7931 135.911 18.6851C135.635 18.5771 135.223 18.4491 134.675 18.3011C134.087 18.1411 133.627 17.9811 133.295 17.8211C132.963 17.6611 132.727 17.4771 132.587 17.2691C132.447 17.0571 132.377 16.7991 132.377 16.4951C132.377 16.1271 132.481 15.8051 132.689 15.5291C132.897 15.2491 133.185 15.0331 133.553 14.8811C133.921 14.7251 134.349 14.6471 134.837 14.6471C135.325 14.6471 135.761 14.7271 136.145 14.8871C136.533 15.0431 136.845 15.2631 137.081 15.5471C137.317 15.8311 137.457 16.1611 137.501 16.5371L136.601 16.6991C136.541 16.3191 136.351 16.0191 136.031 15.7991C135.715 15.5751 135.313 15.4591 134.825 15.4511C134.365 15.4391 133.991 15.5271 133.703 15.7151C133.415 15.8991 133.271 16.1451 133.271 16.4531C133.271 16.6251 133.323 16.7731 133.427 16.8971C133.531 17.0171 133.719 17.1311 133.991 17.2391C134.267 17.3471 134.659 17.4651 135.167 17.5931C135.763 17.7451 136.231 17.9051 136.571 18.0731C136.911 18.2411 137.153 18.4391 137.297 18.6671C137.441 18.8951 137.513 19.1771 137.513 19.5131C137.513 20.1251 137.285 20.6071 136.829 20.9591C136.377 21.3071 135.753 21.4811 134.957 21.4811Z" fill="black"/>
<circle cx="16" cy="16.3071" r="16" fill="#F15E07"/>
<path d="M11.625 13.1821V9.43212C11.625 9.26636 11.6908 9.10739 11.8081 8.99018C11.9253 8.87297 12.0842 8.80712 12.25 8.80712C12.4158 8.80712 12.5747 8.87297 12.6919 8.99018C12.8091 9.10739 12.875 9.26636 12.875 9.43212V13.1821C12.875 13.3479 12.8091 13.5068 12.6919 13.624C12.5747 13.7413 12.4158 13.8071 12.25 13.8071C12.0842 13.8071 11.9253 13.7413 11.8081 13.624C11.6908 13.5068 11.625 13.3479 11.625 13.1821ZM22.875 9.43212V23.8071C22.875 23.9728 22.8091 24.1318 22.6919 24.249C22.5747 24.3662 22.4157 24.4321 22.25 24.4321C22.0842 24.4321 21.9252 24.3662 21.808 24.249C21.6908 24.1318 21.625 23.9728 21.625 23.8071V20.0571H17.875C17.7092 20.0571 17.5502 19.9912 17.433 19.874C17.3158 19.7568 17.25 19.5979 17.25 19.4321C17.279 17.935 17.4681 16.4452 17.814 14.9884C18.5781 11.8251 20.0265 9.70478 22.0039 8.8579C22.0989 8.81719 22.2026 8.8007 22.3056 8.80989C22.4085 8.81909 22.5076 8.85369 22.5939 8.91059C22.6803 8.96749 22.7511 9.04492 22.8002 9.13594C22.8492 9.22696 22.8749 9.32873 22.875 9.43212ZM21.625 10.5181C19.1117 12.4376 18.6195 17.1133 18.5234 18.8071H21.625V10.5181ZM15.3664 9.32978C15.3542 9.24771 15.3257 9.1689 15.2827 9.09795C15.2397 9.027 15.1829 8.96532 15.1158 8.91652C15.0487 8.86772 14.9726 8.83276 14.8918 8.8137C14.8111 8.79464 14.7273 8.79184 14.6455 8.80549C14.5636 8.81913 14.4853 8.84893 14.4151 8.89315C14.3449 8.93737 14.2842 8.99514 14.2366 9.06306C14.1889 9.13099 14.1553 9.20773 14.1376 9.2888C14.1199 9.36987 14.1185 9.45364 14.1336 9.53524L14.75 13.2313C14.75 13.8944 14.4866 14.5303 14.0178 14.9991C13.5489 15.4679 12.913 15.7313 12.25 15.7313C11.587 15.7313 10.9511 15.4679 10.4822 14.9991C10.0134 14.5303 9.75 13.8944 9.75 13.2313L10.3656 9.53524C10.3807 9.45364 10.3793 9.36987 10.3616 9.2888C10.3439 9.20773 10.3103 9.13099 10.2626 9.06306C10.215 8.99514 10.1543 8.93737 10.0841 8.89315C10.0139 8.84893 9.93557 8.81913 9.85373 8.80549C9.77188 8.79184 9.68814 8.79464 9.60738 8.8137C9.52663 8.83276 9.45048 8.86772 9.38337 8.91652C9.31627 8.96532 9.25955 9.027 9.21653 9.09795C9.17352 9.1689 9.14506 9.24771 9.13282 9.32978L8.50782 13.0798C8.50247 13.1136 8.49986 13.1478 8.50001 13.1821C8.50125 14.0679 8.81557 14.9247 9.3874 15.6012C9.95923 16.2777 10.7518 16.7303 11.625 16.879V23.8071C11.625 23.9728 11.6908 24.1318 11.8081 24.249C11.9253 24.3662 12.0842 24.4321 12.25 24.4321C12.4158 24.4321 12.5747 24.3662 12.6919 24.249C12.8091 24.1318 12.875 23.9728 12.875 23.8071V16.879C13.7482 16.7303 14.5408 16.2777 15.1126 15.6012C15.6844 14.9247 15.9987 14.0679 16 13.1821C15.9999 13.1478 15.997 13.1136 15.9914 13.0798L15.3664 9.32978Z" fill="white"/>
</svg>
