<svg width="94" height="33" viewBox="0 0 94 33" fill="none" xmlns="http://www.w3.org/2000/svg">
<path d="M44.302 21.4871C43.694 21.4871 43.146 21.3811 42.658 21.1691C42.17 20.9571 41.754 20.6551 41.41 20.2631C41.07 19.8711 40.81 19.3991 40.63 18.8471C40.45 18.2911 40.36 17.6711 40.36 16.9871C40.36 16.0831 40.516 15.2951 40.828 14.6231C41.144 13.9471 41.596 13.4231 42.184 13.0511C42.772 12.6791 43.478 12.4931 44.302 12.4931C45.222 12.4931 45.97 12.7091 46.546 13.1411C47.126 13.5691 47.53 14.1451 47.758 14.8691L46.87 15.0851C46.682 14.5571 46.372 14.1351 45.94 13.8191C45.512 13.5031 44.978 13.3451 44.338 13.3451C43.662 13.3411 43.1 13.4931 42.652 13.8011C42.204 14.1051 41.866 14.5331 41.638 15.0851C41.414 15.6331 41.3 16.2671 41.296 16.9871C41.292 17.7071 41.402 18.3411 41.626 18.8891C41.854 19.4331 42.194 19.8611 42.646 20.1731C43.098 20.4811 43.662 20.6371 44.338 20.6411C44.958 20.6411 45.47 20.5211 45.874 20.2811C46.278 20.0411 46.584 19.6971 46.792 19.2491C47.004 18.8011 47.124 18.2711 47.152 17.6591H45.16V16.9031H48.076C48.088 16.9951 48.094 17.0931 48.094 17.1971C48.098 17.2971 48.1 17.3691 48.1 17.4131C48.1 18.1931 47.96 18.8911 47.68 19.5071C47.4 20.1191 46.978 20.6031 46.414 20.9591C45.854 21.3111 45.15 21.4871 44.302 21.4871ZM49.3009 21.3071V14.8271H50.0929V16.3871L49.9369 16.1831C50.0089 15.9911 50.1029 15.8151 50.2189 15.6551C50.3349 15.4911 50.4609 15.3571 50.5969 15.2531C50.7649 15.1051 50.9609 14.9931 51.1849 14.9171C51.4089 14.8371 51.6349 14.7911 51.8629 14.7791C52.0909 14.7631 52.2989 14.7791 52.4869 14.8271V15.6551C52.2509 15.5951 51.9929 15.5811 51.7129 15.6131C51.4329 15.6451 51.1749 15.7571 50.9389 15.9491C50.7229 16.1171 50.5609 16.3191 50.4529 16.5551C50.3449 16.7871 50.2729 17.0351 50.2369 17.2991C50.2009 17.5591 50.1829 17.8171 50.1829 18.0731V21.3071H49.3009ZM56.214 21.4871C55.57 21.4871 55.02 21.3411 54.564 21.0491C54.108 20.7571 53.758 20.3531 53.514 19.8371C53.27 19.3211 53.148 18.7291 53.148 18.0611C53.148 17.3811 53.272 16.7851 53.52 16.2731C53.768 15.7611 54.12 15.3631 54.576 15.0791C55.036 14.7911 55.582 14.6471 56.214 14.6471C56.862 14.6471 57.414 14.7931 57.87 15.0851C58.33 15.3731 58.68 15.7751 58.92 16.2911C59.164 16.8031 59.286 17.3931 59.286 18.0611C59.286 18.7411 59.164 19.3391 58.92 19.8551C58.676 20.3671 58.324 20.7671 57.864 21.0551C57.404 21.3431 56.854 21.4871 56.214 21.4871ZM56.214 20.6411C56.934 20.6411 57.47 20.4031 57.822 19.9271C58.174 19.4471 58.35 18.8251 58.35 18.0611C58.35 17.2771 58.172 16.6531 57.816 16.1891C57.464 15.7251 56.93 15.4931 56.214 15.4931C55.73 15.4931 55.33 15.6031 55.014 15.8231C54.702 16.0391 54.468 16.3411 54.312 16.7291C54.16 17.1131 54.084 17.5571 54.084 18.0611C54.084 18.8411 54.264 19.4671 54.624 19.9391C54.984 20.4071 55.514 20.6411 56.214 20.6411ZM63.2975 21.4871C62.6455 21.4871 62.0935 21.3411 61.6415 21.0491C61.1895 20.7571 60.8455 20.3551 60.6095 19.8431C60.3775 19.3271 60.2575 18.7351 60.2495 18.0671C60.2575 17.3871 60.3815 16.7911 60.6215 16.2791C60.8615 15.7631 61.2075 15.3631 61.6595 15.0791C62.1115 14.7911 62.6595 14.6471 63.3035 14.6471C63.9595 14.6471 64.5295 14.8071 65.0135 15.1271C65.5015 15.4471 65.8355 15.8851 66.0155 16.4411L65.1515 16.7171C64.9995 16.3291 64.7575 16.0291 64.4255 15.8171C64.0975 15.6011 63.7215 15.4931 63.2975 15.4931C62.8215 15.4931 62.4275 15.6031 62.1155 15.8231C61.8035 16.0391 61.5715 16.3411 61.4195 16.7291C61.2675 17.1171 61.1895 17.5631 61.1855 18.0671C61.1935 18.8431 61.3735 19.4671 61.7255 19.9391C62.0775 20.4071 62.6015 20.6411 63.2975 20.6411C63.7375 20.6411 64.1115 20.5411 64.4195 20.3411C64.7315 20.1371 64.9675 19.8411 65.1275 19.4531L66.0155 19.7171C65.7755 20.2931 65.4235 20.7331 64.9595 21.0371C64.4955 21.3371 63.9415 21.4871 63.2975 21.4871ZM69.8203 21.4871C69.1883 21.4871 68.6403 21.3471 68.1763 21.0671C67.7163 20.7871 67.3583 20.3931 67.1023 19.8851C66.8463 19.3771 66.7183 18.7811 66.7183 18.0971C66.7183 17.3891 66.8443 16.7771 67.0963 16.2611C67.3483 15.7451 67.7023 15.3471 68.1583 15.0671C68.6183 14.7871 69.1603 14.6471 69.7843 14.6471C70.4243 14.6471 70.9703 14.7951 71.4223 15.0911C71.8743 15.3831 72.2163 15.8031 72.4483 16.3511C72.6803 16.8991 72.7863 17.5531 72.7663 18.3131H71.8663V18.0011C71.8503 17.1611 71.6683 16.5271 71.3203 16.0991C70.9763 15.6711 70.4723 15.4571 69.8083 15.4571C69.1123 15.4571 68.5783 15.6831 68.2063 16.1351C67.8383 16.5871 67.6543 17.2311 67.6543 18.0671C67.6543 18.8831 67.8383 19.5171 68.2063 19.9691C68.5783 20.4171 69.1043 20.6411 69.7843 20.6411C70.2483 20.6411 70.6523 20.5351 70.9963 20.3231C71.3443 20.1071 71.6183 19.7971 71.8183 19.3931L72.6403 19.7111C72.3843 20.2751 72.0063 20.7131 71.5063 21.0251C71.0103 21.3331 70.4483 21.4871 69.8203 21.4871ZM67.3423 18.3131V17.5751H72.2923V18.3131H67.3423ZM74.0978 21.3071V14.8271H74.8898V16.3871L74.7338 16.1831C74.8058 15.9911 74.8998 15.8151 75.0158 15.6551C75.1318 15.4911 75.2578 15.3571 75.3938 15.2531C75.5618 15.1051 75.7578 14.9931 75.9818 14.9171C76.2058 14.8371 76.4318 14.7911 76.6598 14.7791C76.8878 14.7631 77.0958 14.7791 77.2838 14.8271V15.6551C77.0478 15.5951 76.7898 15.5811 76.5098 15.6131C76.2298 15.6451 75.9718 15.7571 75.7358 15.9491C75.5198 16.1171 75.3578 16.3191 75.2498 16.5551C75.1418 16.7871 75.0698 17.0351 75.0338 17.2991C74.9978 17.5591 74.9798 17.8171 74.9798 18.0731V21.3071H74.0978ZM78.542 13.5971V12.6071H79.424V13.5971H78.542ZM78.542 21.3071V14.8271H79.424V21.3071H78.542ZM83.9648 21.4871C83.3328 21.4871 82.7848 21.3471 82.3208 21.0671C81.8608 20.7871 81.5028 20.3931 81.2468 19.8851C80.9908 19.3771 80.8628 18.7811 80.8628 18.0971C80.8628 17.3891 80.9888 16.7771 81.2408 16.2611C81.4928 15.7451 81.8468 15.3471 82.3028 15.0671C82.7628 14.7871 83.3048 14.6471 83.9288 14.6471C84.5688 14.6471 85.1148 14.7951 85.5668 15.0911C86.0188 15.3831 86.3608 15.8031 86.5928 16.3511C86.8248 16.8991 86.9308 17.5531 86.9108 18.3131H86.0108V18.0011C85.9948 17.1611 85.8128 16.5271 85.4648 16.0991C85.1208 15.6711 84.6168 15.4571 83.9528 15.4571C83.2568 15.4571 82.7228 15.6831 82.3508 16.1351C81.9828 16.5871 81.7988 17.2311 81.7988 18.0671C81.7988 18.8831 81.9828 19.5171 82.3508 19.9691C82.7228 20.4171 83.2488 20.6411 83.9288 20.6411C84.3928 20.6411 84.7968 20.5351 85.1408 20.3231C85.4888 20.1071 85.7628 19.7971 85.9628 19.3931L86.7848 19.7111C86.5288 20.2751 86.1508 20.7131 85.6508 21.0251C85.1548 21.3331 84.5928 21.4871 83.9648 21.4871ZM81.4868 18.3131V17.5751H86.4368V18.3131H81.4868ZM90.6603 21.4811C89.9003 21.4811 89.2743 21.3171 88.7823 20.9891C88.2943 20.6611 87.9943 20.2051 87.8823 19.6211L88.7823 19.4711C88.8783 19.8391 89.0963 20.1331 89.4363 20.3531C89.7803 20.5691 90.2043 20.6771 90.7083 20.6771C91.2003 20.6771 91.5883 20.5751 91.8723 20.3711C92.1563 20.1631 92.2983 19.8811 92.2983 19.5251C92.2983 19.3251 92.2523 19.1631 92.1603 19.0391C92.0723 18.9111 91.8903 18.7931 91.6143 18.6851C91.3383 18.5771 90.9263 18.4491 90.3783 18.3011C89.7903 18.1411 89.3303 17.9811 88.9983 17.8211C88.6663 17.6611 88.4303 17.4771 88.2903 17.2691C88.1503 17.0571 88.0803 16.7991 88.0803 16.4951C88.0803 16.1271 88.1843 15.8051 88.3923 15.5291C88.6003 15.2491 88.8883 15.0331 89.2563 14.8811C89.6243 14.7251 90.0523 14.6471 90.5403 14.6471C91.0283 14.6471 91.4643 14.7271 91.8483 14.8871C92.2363 15.0431 92.5483 15.2631 92.7843 15.5471C93.0203 15.8311 93.1603 16.1611 93.2043 16.5371L92.3043 16.6991C92.2443 16.3191 92.0543 16.0191 91.7343 15.7991C91.4183 15.5751 91.0163 15.4591 90.5283 15.4511C90.0683 15.4391 89.6943 15.5271 89.4063 15.7151C89.1183 15.8991 88.9743 16.1451 88.9743 16.4531C88.9743 16.6251 89.0263 16.7731 89.1303 16.8971C89.2343 17.0171 89.4223 17.1311 89.6943 17.2391C89.9703 17.3471 90.3623 17.4651 90.8703 17.5931C91.4663 17.7451 91.9343 17.9051 92.2743 18.0731C92.6143 18.2411 92.8563 18.4391 93.0003 18.6671C93.1443 18.8951 93.2163 19.1771 93.2163 19.5131C93.2163 20.1251 92.9883 20.6071 92.5323 20.9591C92.0803 21.3071 91.4563 21.4811 90.6603 21.4811Z" fill="black"/>
<circle cx="16" cy="16.3071" r="16" fill="#76D913"/>
<path d="M7.66663 7.9738H9.11663C10.0166 7.9738 10.725 8.7488 10.65 9.64046L9.95829 17.9405C9.84163 19.2988 10.9166 20.4655 12.2833 20.4655H21.1583C22.3583 20.4655 23.4083 19.4821 23.5 18.2905L23.95 12.0405C24.05 10.6571 23 9.53212 21.6083 9.53212H10.85" stroke="white" stroke-width="1.25" stroke-miterlimit="10" stroke-linecap="round" stroke-linejoin="round"/>
<path d="M19.5417 24.6405C20.117 24.6405 20.5833 24.1741 20.5833 23.5988C20.5833 23.0235 20.117 22.5571 19.5417 22.5571C18.9664 22.5571 18.5 23.0235 18.5 23.5988C18.5 24.1741 18.9664 24.6405 19.5417 24.6405Z" stroke="white" stroke-width="1.25" stroke-miterlimit="10" stroke-linecap="round" stroke-linejoin="round"/>
<path d="M12.875 24.6405C13.4503 24.6405 13.9167 24.1741 13.9167 23.5988C13.9167 23.0235 13.4503 22.5571 12.875 22.5571C12.2997 22.5571 11.8334 23.0235 11.8334 23.5988C11.8334 24.1741 12.2997 24.6405 12.875 24.6405Z" stroke="white" stroke-width="1.25" stroke-miterlimit="10" stroke-linecap="round" stroke-linejoin="round"/>
<path d="M13.5 12.9738H23.5" stroke="white" stroke-width="1.25" stroke-miterlimit="10" stroke-linecap="round" stroke-linejoin="round"/>
</svg>
