<svg width="73" height="33" viewBox="0 0 73 33" fill="none" xmlns="http://www.w3.org/2000/svg">
<circle cx="16" cy="16.3071" r="16" fill="#26A845"/>
<path d="M12.6417 24.6405C14.4826 24.6405 15.975 23.1481 15.975 21.3071C15.975 19.4662 14.4826 17.9738 12.6417 17.9738C10.8007 17.9738 9.30835 19.4662 9.30835 21.3071C9.30835 23.1481 10.8007 24.6405 12.6417 24.6405Z" stroke="white" stroke-width="1.25" stroke-linecap="round" stroke-linejoin="round"/>
<path d="M15.975 21.3071V9.64046" stroke="white" stroke-width="1.25" stroke-linecap="round" stroke-linejoin="round"/>
<path d="M18.175 8.06546L21.8583 9.29046C22.75 9.59046 23.4833 10.5988 23.4833 11.5405V12.5155C23.4833 13.7905 22.5 14.4988 21.2917 14.0988L17.6083 12.8738C16.7167 12.5738 15.9833 11.5655 15.9833 10.6238V9.64046C15.975 8.3738 16.9667 7.65713 18.175 8.06546Z" stroke="white" stroke-width="1.25" stroke-linecap="round" stroke-linejoin="round"/>
<path d="M40.84 21.3071V12.6671H41.65L45.046 19.9331L48.424 12.6671H49.246V21.3011H48.406V14.6351L45.328 21.3071H44.758L41.686 14.6351V21.3071H40.84ZM53.4078 21.4691C53.0198 21.4691 52.6798 21.4091 52.3878 21.2891C52.0998 21.1691 51.8538 21.0071 51.6498 20.8031C51.4498 20.5991 51.2878 20.3671 51.1638 20.1071C51.0398 19.8431 50.9498 19.5651 50.8938 19.2731C50.8378 18.9771 50.8098 18.6831 50.8098 18.3911V14.8271H51.6978V18.1331C51.6978 18.4891 51.7318 18.8191 51.7998 19.1231C51.8678 19.4271 51.9758 19.6931 52.1238 19.9211C52.2758 20.1451 52.4698 20.3191 52.7058 20.4431C52.9458 20.5671 53.2358 20.6291 53.5758 20.6291C53.8878 20.6291 54.1618 20.5751 54.3978 20.4671C54.6378 20.3591 54.8378 20.2051 54.9978 20.0051C55.1618 19.8011 55.2858 19.5551 55.3698 19.2671C55.4538 18.9751 55.4958 18.6471 55.4958 18.2831L56.1198 18.4211C56.1198 19.0851 56.0038 19.6431 55.7718 20.0951C55.5398 20.5471 55.2198 20.8891 54.8118 21.1211C54.4038 21.3531 53.9358 21.4691 53.4078 21.4691ZM55.5858 21.3071V19.7111H55.4958V14.8271H56.3778V21.3071H55.5858ZM60.4728 21.4811C59.7128 21.4811 59.0868 21.3171 58.5948 20.9891C58.1068 20.6611 57.8068 20.2051 57.6948 19.6211L58.5948 19.4711C58.6908 19.8391 58.9088 20.1331 59.2488 20.3531C59.5928 20.5691 60.0168 20.6771 60.5208 20.6771C61.0128 20.6771 61.4008 20.5751 61.6848 20.3711C61.9688 20.1631 62.1108 19.8811 62.1108 19.5251C62.1108 19.3251 62.0648 19.1631 61.9728 19.0391C61.8848 18.9111 61.7028 18.7931 61.4268 18.6851C61.1508 18.5771 60.7388 18.4491 60.1908 18.3011C59.6028 18.1411 59.1428 17.9811 58.8108 17.8211C58.4788 17.6611 58.2428 17.4771 58.1028 17.2691C57.9628 17.0571 57.8928 16.7991 57.8928 16.4951C57.8928 16.1271 57.9968 15.8051 58.2048 15.5291C58.4128 15.2491 58.7008 15.0331 59.0688 14.8811C59.4368 14.7251 59.8648 14.6471 60.3528 14.6471C60.8408 14.6471 61.2768 14.7271 61.6608 14.8871C62.0488 15.0431 62.3608 15.2631 62.5968 15.5471C62.8328 15.8311 62.9728 16.1611 63.0168 16.5371L62.1168 16.6991C62.0568 16.3191 61.8668 16.0191 61.5468 15.7991C61.2308 15.5751 60.8288 15.4591 60.3408 15.4511C59.8808 15.4391 59.5068 15.5271 59.2188 15.7151C58.9308 15.8991 58.7868 16.1451 58.7868 16.4531C58.7868 16.6251 58.8388 16.7731 58.9428 16.8971C59.0468 17.0171 59.2348 17.1311 59.5068 17.2391C59.7828 17.3471 60.1748 17.4651 60.6828 17.5931C61.2788 17.7451 61.7468 17.9051 62.0868 18.0731C62.4268 18.2411 62.6688 18.4391 62.8128 18.6671C62.9568 18.8951 63.0288 19.1771 63.0288 19.5131C63.0288 20.1251 62.8008 20.6071 62.3448 20.9591C61.8928 21.3071 61.2688 21.4811 60.4728 21.4811ZM64.4795 13.5971V12.6071H65.3615V13.5971H64.4795ZM64.4795 21.3071V14.8271H65.3615V21.3071H64.4795ZM69.8483 21.4871C69.1963 21.4871 68.6443 21.3411 68.1923 21.0491C67.7403 20.7571 67.3963 20.3551 67.1603 19.8431C66.9283 19.3271 66.8083 18.7351 66.8003 18.0671C66.8083 17.3871 66.9323 16.7911 67.1723 16.2791C67.4123 15.7631 67.7583 15.3631 68.2103 15.0791C68.6623 14.7911 69.2103 14.6471 69.8543 14.6471C70.5103 14.6471 71.0803 14.8071 71.5643 15.1271C72.0523 15.4471 72.3863 15.8851 72.5663 16.4411L71.7023 16.7171C71.5503 16.3291 71.3083 16.0291 70.9763 15.8171C70.6483 15.6011 70.2723 15.4931 69.8483 15.4931C69.3723 15.4931 68.9783 15.6031 68.6663 15.8231C68.3543 16.0391 68.1223 16.3411 67.9703 16.7291C67.8183 17.1171 67.7403 17.5631 67.7363 18.0671C67.7443 18.8431 67.9243 19.4671 68.2763 19.9391C68.6283 20.4071 69.1523 20.6411 69.8483 20.6411C70.2883 20.6411 70.6623 20.5411 70.9703 20.3411C71.2823 20.1371 71.5183 19.8411 71.6783 19.4531L72.5663 19.7171C72.3263 20.2931 71.9743 20.7331 71.5103 21.0371C71.0463 21.3371 70.4923 21.4871 69.8483 21.4871Z" fill="black"/>
</svg>
