<svg width="98" height="33" viewBox="0 0 98 33" fill="none" xmlns="http://www.w3.org/2000/svg">
<path d="M43.84 21.4871C43.236 21.4871 42.692 21.3871 42.208 21.1871C41.728 20.9831 41.33 20.6951 41.014 20.3231C40.702 19.9511 40.498 19.5091 40.402 18.9971L41.302 18.8471C41.446 19.4071 41.75 19.8471 42.214 20.1671C42.678 20.4831 43.232 20.6411 43.876 20.6411C44.3 20.6411 44.68 20.5751 45.016 20.4431C45.352 20.3071 45.616 20.1151 45.808 19.8671C46 19.6191 46.096 19.3251 46.096 18.9851C46.096 18.7611 46.056 18.5711 45.976 18.4151C45.896 18.2551 45.79 18.1231 45.658 18.0191C45.526 17.9151 45.382 17.8291 45.226 17.7611C45.07 17.6891 44.918 17.6311 44.77 17.5871L42.58 16.9331C42.316 16.8571 42.072 16.7611 41.848 16.6451C41.624 16.5251 41.428 16.3831 41.26 16.2191C41.096 16.0511 40.968 15.8551 40.876 15.6311C40.784 15.4071 40.738 15.1511 40.738 14.8631C40.738 14.3751 40.866 13.9531 41.122 13.5971C41.378 13.2411 41.728 12.9671 42.172 12.7751C42.616 12.5831 43.122 12.4891 43.69 12.4931C44.266 12.4931 44.78 12.5951 45.232 12.7991C45.688 13.0031 46.064 13.2951 46.36 13.6751C46.656 14.0511 46.852 14.4971 46.948 15.0131L46.024 15.1811C45.964 14.8051 45.826 14.4791 45.61 14.2031C45.394 13.9271 45.118 13.7151 44.782 13.5671C44.45 13.4151 44.084 13.3371 43.684 13.3331C43.296 13.3331 42.95 13.3991 42.646 13.5311C42.346 13.6591 42.108 13.8351 41.932 14.0591C41.756 14.2831 41.668 14.5391 41.668 14.8271C41.668 15.1191 41.748 15.3531 41.908 15.5291C42.072 15.7051 42.272 15.8431 42.508 15.9431C42.748 16.0431 42.98 16.1251 43.204 16.1891L44.896 16.6871C45.072 16.7351 45.278 16.8051 45.514 16.8971C45.754 16.9851 45.986 17.1131 46.21 17.2811C46.438 17.4451 46.626 17.6611 46.774 17.9291C46.922 18.1971 46.996 18.5371 46.996 18.9491C46.996 19.3491 46.916 19.7071 46.756 20.0231C46.6 20.3391 46.378 20.6051 46.09 20.8211C45.806 21.0371 45.472 21.2011 45.088 21.3131C44.708 21.4291 44.292 21.4871 43.84 21.4871ZM51.7625 21.3071C51.3985 21.3831 51.0385 21.4131 50.6825 21.3971C50.3305 21.3811 50.0145 21.3051 49.7345 21.1691C49.4585 21.0331 49.2485 20.8211 49.1045 20.5331C48.9885 20.2931 48.9245 20.0511 48.9125 19.8071C48.9045 19.5591 48.9005 19.2771 48.9005 18.9611V13.0271H49.7765V18.9251C49.7765 19.1971 49.7785 19.4251 49.7825 19.6091C49.7905 19.7891 49.8325 19.9491 49.9085 20.0891C50.0525 20.3571 50.2805 20.5171 50.5925 20.5691C50.9085 20.6211 51.2985 20.6091 51.7625 20.5331V21.3071ZM47.5145 15.5831V14.8271H51.7625V15.5831H47.5145ZM53.0392 21.3071V14.8271H53.8312V16.3871L53.6752 16.1831C53.7472 15.9911 53.8412 15.8151 53.9572 15.6551C54.0732 15.4911 54.1992 15.3571 54.3352 15.2531C54.5032 15.1051 54.6992 14.9931 54.9232 14.9171C55.1472 14.8371 55.3732 14.7911 55.6012 14.7791C55.8292 14.7631 56.0372 14.7791 56.2252 14.8271V15.6551C55.9892 15.5951 55.7312 15.5811 55.4512 15.6131C55.1712 15.6451 54.9132 15.7571 54.6772 15.9491C54.4612 16.1171 54.2992 16.3191 54.1912 16.5551C54.0832 16.7871 54.0112 17.0351 53.9752 17.2991C53.9392 17.5591 53.9212 17.8171 53.9212 18.0731V21.3071H53.0392ZM59.9883 21.4871C59.3563 21.4871 58.8083 21.3471 58.3443 21.0671C57.8843 20.7871 57.5263 20.3931 57.2703 19.8851C57.0143 19.3771 56.8863 18.7811 56.8863 18.0971C56.8863 17.3891 57.0123 16.7771 57.2643 16.2611C57.5163 15.7451 57.8703 15.3471 58.3263 15.0671C58.7863 14.7871 59.3283 14.6471 59.9523 14.6471C60.5923 14.6471 61.1383 14.7951 61.5903 15.0911C62.0423 15.3831 62.3843 15.8031 62.6163 16.3511C62.8483 16.8991 62.9543 17.5531 62.9343 18.3131H62.0343V18.0011C62.0183 17.1611 61.8363 16.5271 61.4883 16.0991C61.1443 15.6711 60.6403 15.4571 59.9763 15.4571C59.2803 15.4571 58.7463 15.6831 58.3743 16.1351C58.0063 16.5871 57.8223 17.2311 57.8223 18.0671C57.8223 18.8831 58.0063 19.5171 58.3743 19.9691C58.7463 20.4171 59.2723 20.6411 59.9523 20.6411C60.4163 20.6411 60.8203 20.5351 61.1643 20.3231C61.5123 20.1071 61.7863 19.7971 61.9863 19.3931L62.8083 19.7111C62.5523 20.2751 62.1743 20.7131 61.6743 21.0251C61.1783 21.3331 60.6163 21.4871 59.9883 21.4871ZM57.5103 18.3131V17.5751H62.4603V18.3131H57.5103ZM66.0026 21.4871C65.5146 21.4871 65.1046 21.3991 64.7726 21.2231C64.4446 21.0471 64.1986 20.8131 64.0346 20.5211C63.8706 20.2291 63.7886 19.9111 63.7886 19.5671C63.7886 19.2151 63.8586 18.9151 63.9986 18.6671C64.1426 18.4151 64.3366 18.2091 64.5806 18.0491C64.8286 17.8891 65.1146 17.7671 65.4386 17.6831C65.7666 17.6031 66.1286 17.5331 66.5246 17.4731C66.9246 17.4091 67.3146 17.3551 67.6946 17.3111C68.0786 17.2631 68.4146 17.2171 68.7026 17.1731L68.3906 17.3651C68.4026 16.7251 68.2786 16.2511 68.0186 15.9431C67.7586 15.6351 67.3066 15.4811 66.6626 15.4811C66.2186 15.4811 65.8426 15.5811 65.5346 15.7811C65.2306 15.9811 65.0166 16.2971 64.8926 16.7291L64.0346 16.4771C64.1826 15.8971 64.4806 15.4471 64.9286 15.1271C65.3766 14.8071 65.9586 14.6471 66.6746 14.6471C67.2666 14.6471 67.7686 14.7591 68.1806 14.9831C68.5966 15.2031 68.8906 15.5231 69.0626 15.9431C69.1426 16.1311 69.1946 16.3411 69.2186 16.5731C69.2426 16.8051 69.2546 17.0411 69.2546 17.2811V21.3071H68.4686V19.6811L68.6966 19.7771C68.4766 20.3331 68.1346 20.7571 67.6706 21.0491C67.2066 21.3411 66.6506 21.4871 66.0026 21.4871ZM66.1046 20.7251C66.5166 20.7251 66.8766 20.6511 67.1846 20.5031C67.4926 20.3551 67.7406 20.1531 67.9286 19.8971C68.1166 19.6371 68.2386 19.3451 68.2946 19.0211C68.3426 18.8131 68.3686 18.5851 68.3726 18.3371C68.3766 18.0851 68.3786 17.8971 68.3786 17.7731L68.7146 17.9471C68.4146 17.9871 68.0886 18.0271 67.7366 18.0671C67.3886 18.1071 67.0446 18.1531 66.7046 18.2051C66.3686 18.2571 66.0646 18.3191 65.7926 18.3911C65.6086 18.4431 65.4306 18.5171 65.2586 18.6131C65.0866 18.7051 64.9446 18.8291 64.8326 18.9851C64.7246 19.1411 64.6706 19.3351 64.6706 19.5671C64.6706 19.7551 64.7166 19.9371 64.8086 20.1131C64.9046 20.2891 65.0566 20.4351 65.2646 20.5511C65.4766 20.6671 65.7566 20.7251 66.1046 20.7251ZM78.5446 21.3071L78.5506 17.0531C78.5506 16.5531 78.4106 16.1611 78.1306 15.8771C77.8546 15.5891 77.5026 15.4451 77.0746 15.4451C76.8306 15.4451 76.5926 15.5011 76.3606 15.6131C76.1286 15.7251 75.9366 15.9051 75.7846 16.1531C75.6366 16.4011 75.5626 16.7251 75.5626 17.1251L75.0406 16.9751C75.0286 16.5111 75.1186 16.1051 75.3106 15.7571C75.5066 15.4091 75.7746 15.1391 76.1146 14.9471C76.4586 14.7511 76.8466 14.6531 77.2786 14.6531C77.9306 14.6531 78.4526 14.8551 78.8446 15.2591C79.2366 15.6591 79.4326 16.2011 79.4326 16.8851L79.4266 21.3071H78.5446ZM70.8106 21.3071V14.8271H71.6026V16.4231H71.6986V21.3071H70.8106ZM74.6866 21.3071L74.6926 17.1131C74.6926 16.5971 74.5546 16.1911 74.2786 15.8951C74.0066 15.5951 73.6466 15.4451 73.1986 15.4451C72.7506 15.4451 72.3886 15.5991 72.1126 15.9071C71.8366 16.2111 71.6986 16.6171 71.6986 17.1251L71.1706 16.8371C71.1706 16.4211 71.2686 16.0491 71.4646 15.7211C71.6606 15.3891 71.9286 15.1291 72.2686 14.9411C72.6086 14.7491 72.9946 14.6531 73.4266 14.6531C73.8386 14.6531 74.2046 14.7411 74.5246 14.9171C74.8486 15.0931 75.1026 15.3491 75.2866 15.6851C75.4706 16.0211 75.5626 16.4291 75.5626 16.9091L75.5566 21.3071H74.6866ZM81.1084 13.5971V12.6071H81.9904V13.5971H81.1084ZM81.1084 21.3071V14.8271H81.9904V21.3071H81.1084ZM88.4692 21.3071V18.0011C88.4692 17.6411 88.4352 17.3111 88.3672 17.0111C88.2992 16.7071 88.1892 16.4431 88.0372 16.2191C87.8892 15.9911 87.6952 15.8151 87.4552 15.6911C87.2192 15.5671 86.9312 15.5051 86.5912 15.5051C86.2792 15.5051 86.0032 15.5591 85.7632 15.6671C85.5272 15.7751 85.3272 15.9311 85.1632 16.1351C85.0032 16.3351 84.8812 16.5791 84.7972 16.8671C84.7132 17.1551 84.6712 17.4831 84.6712 17.8511L84.0472 17.7131C84.0472 17.0491 84.1632 16.4911 84.3952 16.0391C84.6272 15.5871 84.9472 15.2451 85.3552 15.0131C85.7632 14.7811 86.2312 14.6651 86.7592 14.6651C87.1472 14.6651 87.4852 14.7251 87.7732 14.8451C88.0652 14.9651 88.3112 15.1271 88.5112 15.3311C88.7152 15.5351 88.8792 15.7691 89.0032 16.0331C89.1272 16.2931 89.2172 16.5711 89.2732 16.8671C89.3292 17.1591 89.3572 17.4511 89.3572 17.7431V21.3071H88.4692ZM83.7832 21.3071V14.8271H84.5812V16.4231H84.6712V21.3071H83.7832ZM93.4882 24.3671C93.1562 24.3671 92.8282 24.3171 92.5042 24.2171C92.1842 24.1211 91.8882 23.9671 91.6162 23.7551C91.3442 23.5471 91.1162 23.2751 90.9322 22.9391L91.7302 22.4951C91.9102 22.8551 92.1622 23.1131 92.4862 23.2691C92.8142 23.4291 93.1482 23.5091 93.4882 23.5091C93.9562 23.5091 94.3342 23.4211 94.6222 23.2451C94.9142 23.0731 95.1262 22.8171 95.2582 22.4771C95.3902 22.1371 95.4542 21.7131 95.4502 21.2051V19.4771H95.5522V14.8271H96.3382V21.2171C96.3382 21.4011 96.3322 21.5771 96.3202 21.7451C96.3122 21.9171 96.2942 22.0851 96.2662 22.2491C96.1902 22.7331 96.0322 23.1311 95.7922 23.4431C95.5562 23.7551 95.2442 23.9871 94.8562 24.1391C94.4722 24.2911 94.0162 24.3671 93.4882 24.3671ZM93.4282 21.4871C92.8242 21.4871 92.3082 21.3371 91.8802 21.0371C91.4522 20.7331 91.1242 20.3231 90.8962 19.8071C90.6682 19.2911 90.5542 18.7091 90.5542 18.0611C90.5542 17.4171 90.6662 16.8371 90.8902 16.3211C91.1182 15.8051 91.4442 15.3971 91.8682 15.0971C92.2922 14.7971 92.8002 14.6471 93.3922 14.6471C94.0002 14.6471 94.5122 14.7951 94.9282 15.0911C95.3442 15.3871 95.6582 15.7931 95.8702 16.3091C96.0862 16.8211 96.1942 17.4051 96.1942 18.0611C96.1942 18.7051 96.0882 19.2871 95.8762 19.8071C95.6642 20.3231 95.3522 20.7331 94.9402 21.0371C94.5282 21.3371 94.0242 21.4871 93.4282 21.4871ZM93.5182 20.6651C93.9782 20.6651 94.3582 20.5531 94.6582 20.3291C94.9582 20.1051 95.1822 19.7971 95.3302 19.4051C95.4782 19.0091 95.5522 18.5611 95.5522 18.0611C95.5522 17.5531 95.4782 17.1051 95.3302 16.7171C95.1822 16.3251 94.9582 16.0191 94.6582 15.7991C94.3622 15.5791 93.9882 15.4691 93.5362 15.4691C93.0722 15.4691 92.6882 15.5831 92.3842 15.8111C92.0802 16.0391 91.8542 16.3491 91.7062 16.7411C91.5622 17.1331 91.4902 17.5731 91.4902 18.0611C91.4902 18.5531 91.5642 18.9971 91.7122 19.3931C91.8642 19.7851 92.0902 20.0951 92.3902 20.3231C92.6902 20.5511 93.0662 20.6651 93.5182 20.6651Z" fill="black"/>
<circle cx="16" cy="16.3071" r="16" fill="#ED2727"/>
<path d="M16.4416 23.3238H11.175C8.54163 23.3238 7.66663 21.5738 7.66663 19.8155V12.7988C7.66663 10.1655 8.54163 9.29046 11.175 9.29046H16.4416C19.075 9.29046 19.95 10.1655 19.95 12.7988V19.8155C19.95 22.4488 19.0666 23.3238 16.4416 23.3238Z" stroke="white" stroke-width="1.25" stroke-linecap="round" stroke-linejoin="round"/>
<path d="M22.2666 20.5571L19.95 18.9321V13.6738L22.2666 12.0488C23.4 11.2571 24.3333 11.7405 24.3333 13.1321V19.4821C24.3333 20.8738 23.4 21.3571 22.2666 20.5571Z" stroke="white" stroke-width="1.25" stroke-linecap="round" stroke-linejoin="round"/>
<path d="M15.5834 15.4738C16.2737 15.4738 16.8334 14.9142 16.8334 14.2238C16.8334 13.5334 16.2737 12.9738 15.5834 12.9738C14.893 12.9738 14.3334 13.5334 14.3334 14.2238C14.3334 14.9142 14.893 15.4738 15.5834 15.4738Z" stroke="white" stroke-width="1.25" stroke-linecap="round" stroke-linejoin="round"/>
</svg>
